# xmcd
#
# Track frame offsets:
#	150
#	16878
#	34014
#	44041
#	61894
#	69120
#	86736
#	100719
#	116406
#	130672
#	146010
#	169290
#	186809
#
# Disc length: 2678 seconds
#
# Revision: 1
# Processed by: cddbd v1.5.2PL0 Copyright (c) Steve Scherf et al.
# Submitted via: audiograbber 1.82.02
#
DISCID=ab0a740d
DTITLE=Ernie Constance - A Dinkum Bushman's Hands
DYEAR=2004
DGENRE=Country
TTITLE0=A Dinkum Bushman's Hands
TTITLE1=In Conservation's Name
TTITLE2=Bog A Frog
TTITLE3=Trading My Crown For A Ring
TTITLE4=The Worse For Ware
TTITLE5=Parker Bros
TTITLE6=Addicted To The Highway
TTITLE7=The O P Brand
TTITLE8=If You Should Change Your Mind
TTITLE9=Things I See Around Me
TTITLE10=Th Streets Of Hell
TTITLE11=Footsteps
TTITLE12=Walking With You
EXTD=
EXTT0=
EXTT1=
EXTT2=
EXTT3=
EXTT4=
EXTT5=
EXTT6=
EXTT7=
EXTT8=
EXTT9=
EXTT10=
EXTT11=
EXTT12=
PLAYORDER=
